<svg xmlns="http://www.w3.org/2000/svg" xmlns:xlink="http://www.w3.org/1999/xlink" width="162.631" height="16.607" viewBox="0 0 162.631 16.607">
  <defs>
    <linearGradient id="linear-gradient" x1="1" y1="0.195" x2="0" y2="0.5" gradientUnits="objectBoundingBox">
      <stop offset="0" stop-color="#a463f2"/>
      <stop offset="1" stop-color="#7083f0"/>
    </linearGradient>
  </defs>
  <g id="Grupo_15" data-name="Grupo 15" transform="translate(0 0)">
    <g id="Grupo_16" data-name="Grupo 16" transform="translate(0 0)">
      <path id="Trazado_8" data-name="Trazado 8" d="M3.2,23.385v1.082a4.211,4.211,0,0,1,6.471.508,5.2,5.2,0,0,1,1.745-1.314,4.812,4.812,0,0,1,2.054-.475,4.369,4.369,0,0,1,3.092,1.248,4.433,4.433,0,0,1,1.325,3.39v7.266h-3.2V28.53a2.964,2.964,0,0,0-.475-1.778,1.626,1.626,0,0,0-1.4-.652q-2.01,0-2.253,2.341v6.647h-3.2V28.53a2.964,2.964,0,0,0-.475-1.778,1.625,1.625,0,0,0-1.4-.652,1.962,1.962,0,0,0-1.723.784A3.473,3.473,0,0,0,3.2,28.928v6.161H0v-11.7Z" transform="translate(0 -18.659)" fill="#fff"/>
      <path id="Trazado_9" data-name="Trazado 9" d="M101.887,24.932a5.992,5.992,0,0,1,8.038-.375,5.967,5.967,0,0,1,2.1,3.445,5.641,5.641,0,0,1,.155,1.281,4.895,4.895,0,0,1-.132,1.148h-8.79a2.523,2.523,0,0,0,1.038,1.491,3.209,3.209,0,0,0,1.833.519,3.924,3.924,0,0,0,2.76-.994l2.783.795a5.029,5.029,0,0,1-2.275,2.2,6.994,6.994,0,0,1-3.268.828,6.032,6.032,0,0,1-6.029-6.029,5.825,5.825,0,0,1,1.789-4.306M103.256,28h5.676a2.827,2.827,0,0,0-1.016-1.413,2.893,2.893,0,0,0-1.811-.574,2.941,2.941,0,0,0-1.822.574A2.806,2.806,0,0,0,103.256,28" transform="translate(-80.554 -18.66)" fill="#fff"/>
      <path id="Trazado_10" data-name="Trazado 10" d="M170.453,10.277a5.5,5.5,0,0,1,4.086-1.745,4.7,4.7,0,0,1,3.224,1.192V4.977h3.2V20.436h-3.2v-.972a4.752,4.752,0,0,1-3.224,1.148,5.448,5.448,0,0,1-4.075-1.789,5.926,5.926,0,0,1-1.711-4.24,5.979,5.979,0,0,1,1.7-4.306m1.281,4.306a3.072,3.072,0,0,0,.894,2.208,2.96,2.96,0,0,0,2.219.927,3.187,3.187,0,0,0,3.136-3.136,3.064,3.064,0,0,0-.927-2.208,2.983,2.983,0,0,0-2.209-.95,2.944,2.944,0,0,0-2.219.939,3.111,3.111,0,0,0-.894,2.219" transform="translate(-135.804 -4.005)" fill="#fff"/>
      <path id="Trazado_11" data-name="Trazado 11" d="M242.619.552a2.03,2.03,0,0,1,2.783,0,1.8,1.8,0,0,1,.574,1.347,1.73,1.73,0,0,1-.574,1.325,1.935,1.935,0,0,1-1.391.552,1.954,1.954,0,0,1-1.391-.541,1.763,1.763,0,0,1-.574-1.336,1.8,1.8,0,0,1,.574-1.347m2.959,15.879h-3.2V4.726h3.2Z" transform="translate(-194.785 0)" fill="#fff"/>
      <path id="Trazado_12" data-name="Trazado 12" d="M272.02,24.932a5.5,5.5,0,0,1,4.086-1.745,4.7,4.7,0,0,1,3.224,1.192v-.994h3.2v11.7h-3.2v-.972a4.753,4.753,0,0,1-3.224,1.148,5.448,5.448,0,0,1-4.074-1.789,6.2,6.2,0,0,1-.011-8.547m1.281,4.306a3.072,3.072,0,0,0,.894,2.208,2.959,2.959,0,0,0,2.219.927,3.187,3.187,0,0,0,3.136-3.136,3.065,3.065,0,0,0-.928-2.208,2.983,2.983,0,0,0-2.208-.95,2.942,2.942,0,0,0-2.219.939,3.11,3.11,0,0,0-.894,2.219" transform="translate(-217.539 -18.66)" fill="#fff"/>
      <path id="Trazado_13" data-name="Trazado 13" d="M344.835,24.932a5.992,5.992,0,0,1,8.039-.375,5.967,5.967,0,0,1,2.1,3.445,5.631,5.631,0,0,1,.155,1.281,4.9,4.9,0,0,1-.133,1.148H346.2a2.522,2.522,0,0,0,1.038,1.491,3.208,3.208,0,0,0,1.833.519,3.924,3.924,0,0,0,2.761-.994l2.783.795a5.028,5.028,0,0,1-2.275,2.2,7,7,0,0,1-3.268.828,6.032,6.032,0,0,1-6.029-6.029,5.825,5.825,0,0,1,1.789-4.306M346.2,28h5.676a2.827,2.827,0,0,0-1.016-1.413,2.894,2.894,0,0,0-1.811-.574,2.941,2.941,0,0,0-1.822.574A2.8,2.8,0,0,0,346.2,28" transform="translate(-276.066 -18.66)" fill="#fff"/>
      <rect id="Rectángulo_3" data-name="Rectángulo 3" width="3.202" height="15.459" transform="translate(80.937 0.972)" fill="#fff"/>
      <path id="Trazado_14" data-name="Trazado 14" d="M443.106,30.04,444.85,32.9l-1.827,3h-3.529l3.553-5.858-3.553-5.852h3.529l1.827,3Z" transform="translate(-353.683 -19.465)" fill="#fff"/>
      <path id="Trazado_15" data-name="Trazado 15" d="M472.681,34.057l2.537-7.131h1.925l2.5,7.131h-1.263l-.54-1.559H474.5l-.561,1.559Zm4.788-2.659-1.284-3.78-1.324,3.78Zm3.067-4.472h1.223v7.131h-1.223ZM485.6,30.2a1.377,1.377,0,0,1,.62-1.195,2.714,2.714,0,0,1,1.586-.432,3.987,3.987,0,0,1,2.085.559v1.129a4.3,4.3,0,0,0-2.085-.681,1.4,1.4,0,0,0-.727.168.5.5,0,0,0-.279.442.394.394,0,0,0,.035.168.36.36,0,0,0,.122.137,1.129,1.129,0,0,0,.173.1,1.664,1.664,0,0,0,.249.086q.162.046.275.071l.33.076.351.081a2.93,2.93,0,0,1,1.358.63,1.365,1.365,0,0,1,.432,1,1.329,1.329,0,0,1-.341.925,1.807,1.807,0,0,1-.809.523,3.4,3.4,0,0,1-1.027.148,4.078,4.078,0,0,1-2.237-.7v-1.19a3.888,3.888,0,0,0,1.007.59,3.118,3.118,0,0,0,1.23.275,1.417,1.417,0,0,0,.686-.158.473.473,0,0,0,.29-.422.522.522,0,0,0-.336-.453,4.1,4.1,0,0,0-1.048-.32,3.674,3.674,0,0,1-1.469-.564,1.179,1.179,0,0,1-.473-.991m5.9-.813a2.78,2.78,0,1,1-.813,1.962,2.675,2.675,0,0,1,.813-1.962m.285,1.962a1.687,1.687,0,0,0,.488,1.21,1.634,1.634,0,0,0,2.369,0,1.745,1.745,0,0,0,.005-2.415,1.652,1.652,0,0,0-2.375,0,1.669,1.669,0,0,0-.488,1.2m5.359-4.413h1.169v7.118h-1.169Zm2.237,1.729h1.169v2.979a1.4,1.4,0,0,0,.381,1.027,1.268,1.268,0,0,0,.941.387,1.316,1.316,0,0,0,1.042-.463,1.713,1.713,0,0,0,.4-1.164V28.668h1.169v5.389h-1.169v-.712a2.008,2.008,0,0,1-1.678.8,2.307,2.307,0,0,1-1.591-.595,2.015,2.015,0,0,1-.666-1.581Zm5.979,1.017V28.668h1.017V27.376l1.149-.335v1.627h1.657v1.017h-1.657v2.623q0,.5.29.62a1.366,1.366,0,0,0,.524.122,3.037,3.037,0,0,0,.884-.163v1.129a3.784,3.784,0,0,1-1.007.153,2.469,2.469,0,0,1-1.22-.351,1.579,1.579,0,0,1-.62-1.5V29.685Zm4.891-2.9a.787.787,0,0,1,1.073-.005.694.694,0,0,1,.219.524.685.685,0,0,1-.214.519.753.753,0,0,1-.539.213.762.762,0,0,1-.539-.208.719.719,0,0,1,0-1.042m1.108,7.27h-1.169V28.668h1.169Zm1.78-4.667a2.78,2.78,0,1,1-.814,1.962,2.674,2.674,0,0,1,.814-1.962m.285,1.962a1.688,1.688,0,0,0,.488,1.21,1.634,1.634,0,0,0,2.369,0,1.745,1.745,0,0,0,.005-2.415,1.652,1.652,0,0,0-2.374,0,1.67,1.67,0,0,0-.488,1.2m5.237-2.684h1.169v.712a2.009,2.009,0,0,1,1.678-.8,2.308,2.308,0,0,1,1.591.595,2.016,2.016,0,0,1,.666,1.581v3.3H522.6V31.067a1.381,1.381,0,0,0-.381-1.022,1.278,1.278,0,0,0-.94-.381,1.316,1.316,0,0,0-1.042.463,1.7,1.7,0,0,0-.4,1.154v2.776h-1.169ZM524.64,30.2a1.377,1.377,0,0,1,.62-1.195,2.713,2.713,0,0,1,1.586-.432,3.987,3.987,0,0,1,2.085.559v1.129a4.3,4.3,0,0,0-2.085-.681,1.4,1.4,0,0,0-.727.168.5.5,0,0,0-.279.442.391.391,0,0,0,.035.168A.359.359,0,0,0,526,30.5a1.131,1.131,0,0,0,.173.1,1.682,1.682,0,0,0,.249.086q.163.046.275.071l.33.076.351.081a2.93,2.93,0,0,1,1.358.63,1.366,1.366,0,0,1,.432,1,1.328,1.328,0,0,1-.341.925,1.807,1.807,0,0,1-.809.523,3.406,3.406,0,0,1-1.027.148,4.079,4.079,0,0,1-2.237-.7v-1.19a3.89,3.89,0,0,0,1.007.59,3.118,3.118,0,0,0,1.23.275,1.417,1.417,0,0,0,.687-.158.473.473,0,0,0,.29-.422.522.522,0,0,0-.335-.453,4.1,4.1,0,0,0-1.048-.32,3.671,3.671,0,0,1-1.469-.564,1.178,1.178,0,0,1-.473-.991m6.073,5.695h2.418l2.5-4.09,1.076-1.762-1.076-1.762v-.006l-2.5-4.091h-2.418l3.558,5.858Zm-59.884-11.71h-2.418l-2.5,4.091-1.076,1.762,1.076,1.762v.006l2.5,4.091h2.418L467.27,30.04Z" transform="translate(-374.076 -19.465)" fill="url(#linear-gradient)"/>
    </g>
  </g>
</svg>
