<svg xmlns="http://www.w3.org/2000/svg" width="272.21" height="31.354" viewBox="0 0 272.21 31.354">
    <defs>
        <clipPath id="yobtq3jh3a">
            <path data-name="Rectángulo 31" style="fill:none" d="M0 0h272.21v31.354H0z"/>
        </clipPath>
    </defs>
    <g data-name="Grupo 2665">
        <g data-name="Grupo 2664" style="clip-path:url(#yobtq3jh3a)">
            <path data-name="Trazado 350" d="M6.045 23.561V25.6a7.814 7.814 0 0 1 5.545-2.419 7.893 7.893 0 0 1 6.671 3.378 9.823 9.823 0 0 1 3.294-2.481 9.083 9.083 0 0 1 3.878-.9 8.249 8.249 0 0 1 5.837 2.356 8.37 8.37 0 0 1 2.5 6.4v13.725h-6.044V33.276a5.593 5.593 0 0 0-.9-3.356 3.067 3.067 0 0 0-2.647-1.23q-3.794 0-4.253 4.42v12.55h-6.042V33.276a5.593 5.593 0 0 0-.9-3.356 3.067 3.067 0 0 0-2.647-1.23 3.7 3.7 0 0 0-3.252 1.48 6.554 6.554 0 0 0-1.042 3.857v11.632H0v-22.1z" transform="translate(0 -14.639)" style="fill:#272727"/>
            <path data-name="Trazado 351" d="M103.476 26.481a11.312 11.312 0 0 1 15.177-.709 11.269 11.269 0 0 1 3.961 6.5 10.655 10.655 0 0 1 .292 2.418 9.245 9.245 0 0 1-.25 2.168h-16.595a4.765 4.765 0 0 0 1.96 2.814 6.06 6.06 0 0 0 3.461.98 7.409 7.409 0 0 0 5.212-1.876l5.253 1.5a9.487 9.487 0 0 1-4.294 4.149 13.206 13.206 0 0 1-6.17 1.564A11.389 11.389 0 0 1 100.1 34.611a11 11 0 0 1 3.377-8.131m2.585 5.8h10.715a5.341 5.341 0 0 0-1.918-2.668 5.466 5.466 0 0 0-3.419-1.084 5.556 5.556 0 0 0-3.44 1.08 5.3 5.3 0 0 0-1.939 2.668" transform="translate(-63.2 -14.64)" style="fill:#272727"/>
            <path data-name="Trazado 352" d="M171.963 14.984a10.389 10.389 0 0 1 7.713-3.294 8.874 8.874 0 0 1 6.087 2.251V4.978h6.046v29.186h-6.046v-1.835a8.971 8.971 0 0 1-6.087 2.168 10.284 10.284 0 0 1-7.692-3.377 11.185 11.185 0 0 1-3.232-8 11.286 11.286 0 0 1 3.21-8.131m2.419 8.131a5.8 5.8 0 0 0 1.689 4.17 5.587 5.587 0 0 0 4.19 1.751 6.017 6.017 0 0 0 5.92-5.92 5.787 5.787 0 0 0-1.751-4.17 5.632 5.632 0 0 0-4.169-1.793 5.555 5.555 0 0 0-4.19 1.772 5.871 5.871 0 0 0-1.689 4.191" transform="translate(-106.546 -3.143)" style="fill:#272727"/>
            <path data-name="Trazado 353" d="M243.129 1.042a3.832 3.832 0 0 1 5.254 0 3.4 3.4 0 0 1 1.084 2.544 3.263 3.263 0 0 1-1.084 2.5 3.651 3.651 0 0 1-2.627 1.042 3.69 3.69 0 0 1-2.627-1.021 3.327 3.327 0 0 1-1.084-2.523 3.4 3.4 0 0 1 1.084-2.544m5.587 29.978h-6.045V8.923h6.045z" transform="translate(-152.821)" style="fill:#272727"/>
            <path data-name="Trazado 354" d="M273.53 26.481a10.388 10.388 0 0 1 7.713-3.294 8.875 8.875 0 0 1 6.087 2.251v-1.876h6.045v22.1h-6.045v-1.836a8.972 8.972 0 0 1-6.087 2.168 10.284 10.284 0 0 1-7.692-3.377 11.186 11.186 0 0 1-3.232-8 11.286 11.286 0 0 1 3.211-8.131m2.418 8.131a5.8 5.8 0 0 0 1.689 4.17 5.587 5.587 0 0 0 4.19 1.751 6.017 6.017 0 0 0 5.921-5.92A5.786 5.786 0 0 0 286 30.442a5.631 5.631 0 0 0-4.169-1.793 5.555 5.555 0 0 0-4.19 1.772 5.872 5.872 0 0 0-1.689 4.191" transform="translate(-170.673 -14.64)" style="fill:#272727"/>
            <path data-name="Trazado 355" d="M346.423 26.481a11.313 11.313 0 0 1 15.177-.709 11.269 11.269 0 0 1 3.961 6.5 10.655 10.655 0 0 1 .292 2.418 9.247 9.247 0 0 1-.25 2.168h-16.595a4.765 4.765 0 0 0 1.96 2.814 6.06 6.06 0 0 0 3.461.98 7.409 7.409 0 0 0 5.212-1.876l5.253 1.5a9.487 9.487 0 0 1-4.294 4.154 13.206 13.206 0 0 1-6.17 1.564 11.389 11.389 0 0 1-11.382-11.382 11 11 0 0 1 3.377-8.131m2.585 5.8h10.715a5.341 5.341 0 0 0-1.918-2.668 5.466 5.466 0 0 0-3.419-1.084 5.555 5.555 0 0 0-3.44 1.084 5.3 5.3 0 0 0-1.939 2.668" transform="translate(-216.591 -14.64)" style="fill:#272727"/>
            <path data-name="Rectángulo 30" transform="translate(152.805 1.835)" style="fill:#272727" d="M0 0h6.045v29.186H0z"/>
            <path data-name="Trazado 356" d="m446.311 35.238 3.292 5.4-3.449 5.662h-6.663l6.707-11.06-6.707-11.048h6.663l3.448 5.658z" transform="translate(-277.484 -15.272)" style="fill:#272727"/>
            <path data-name="Trazado 357" d="m523.775 24.114 6.207 19.73 6.239-19.73h6.27v22.169h-3.641v-19.1l-6.017 19.1h-5.7l-5.953-18.97v18.97h-3.642V24.114z" transform="translate(-326.759 -15.225)" style="fill:#3cb4e5"/>
            <path data-name="Trazado 358" d="M595.114 46.282V24.114h3.737V42.8H610v3.484z" transform="translate(-375.74 -15.225)" style="fill:#3cb4e5"/>
            <path data-name="Trazado 359" d="M644.233 25.2a9.831 9.831 0 0 1 5.89-1.774 13.856 13.856 0 0 1 8.076 2.5v3.9a17.677 17.677 0 0 0-3.975-2.106 11.585 11.585 0 0 0-4.1-.808 6.418 6.418 0 0 0-3.23.776 2.352 2.352 0 0 0-1.362 2.106 1.813 1.813 0 0 0 .475 1.235 3.574 3.574 0 0 0 1.267.887 13.5 13.5 0 0 0 1.9.649q1.108.3 2.28.586c.147.021.264.043.349.063q3.958.982 5.574 2.66a5.483 5.483 0 0 1 1.615 3.927 5.274 5.274 0 0 1-1.251 3.531 7.072 7.072 0 0 1-3.088 2.121 11.7 11.7 0 0 1-3.927.65h-.19a12.479 12.479 0 0 1-8.424-3.2v-3.927a13.091 13.091 0 0 0 8.677 3.61 6.5 6.5 0 0 0 3.167-.713 2.251 2.251 0 0 0 1.3-2.074 2.461 2.461 0 0 0-1.362-2.09 17.493 17.493 0 0 0-4.782-1.679 13.918 13.918 0 0 1-5.558-2.407 4.725 4.725 0 0 1-1.789-3.8 5.449 5.449 0 0 1 2.47-4.624" transform="translate(-405.193 -14.79)" style="fill:#3cb4e5"/>
            <path data-name="Trazado 360" d="m714.464 35.249-6.718-11.06h4.564l4.721 7.723v.011l2.031 3.326-2.031 3.326-4.72 7.725h-4.564z" transform="translate(-446.853 -15.272)" style="fill:#3cb4e5"/>
            <path data-name="Trazado 361" d="m469.43 35.238 6.718 11.06h-4.564l-4.721-7.723v-.011l-2.031-3.326 2.031-3.326 4.721-7.723h4.564z" transform="translate(-293.483 -15.272)" style="fill:#3cb4e5"/>
        </g>
    </g>
</svg>
