<svg xmlns="http://www.w3.org/2000/svg" width="272.665" height="82.421" viewBox="0 0 272.665 82.421">
    <g data-name="Grupo 4">
        <g data-name="Grupo 5">
            <path data-name="Trazado 26" d="M8.633 23.766v2.917a11.353 11.353 0 0 1 17.444 1.369 14.034 14.034 0 0 1 4.7-3.542 12.966 12.966 0 0 1 5.537-1.28 11.779 11.779 0 0 1 8.336 3.364 11.952 11.952 0 0 1 3.572 9.139v19.588h-8.629V37.638a7.992 7.992 0 0 0-1.28-4.793 4.385 4.385 0 0 0-3.781-1.756q-5.419 0-6.073 6.311v17.921h-8.632V37.638a7.988 7.988 0 0 0-1.28-4.793 4.384 4.384 0 0 0-3.781-1.756 5.29 5.29 0 0 0-4.644 2.111 9.363 9.363 0 0 0-1.489 5.51v16.611H0V23.766z" transform="translate(0 -11.025)" style="fill:#fff"/>
            <path data-name="Trazado 27" d="M105.112 27.934a16.155 16.155 0 0 1 21.672-1.012 16.093 16.093 0 0 1 5.656 9.288 15.249 15.249 0 0 1 .417 3.453 13.221 13.221 0 0 1-.357 3.1h-23.7a6.8 6.8 0 0 0 2.8 4.019 8.651 8.651 0 0 0 4.942 1.4 10.575 10.575 0 0 0 7.442-2.679l7.5 2.144a13.558 13.558 0 0 1-6.133 5.924 18.854 18.854 0 0 1-8.811 2.233A15.583 15.583 0 0 1 105.022 51a15.735 15.735 0 0 1-4.733-11.461 15.7 15.7 0 0 1 4.823-11.61m3.688 8.281h15.3a7.627 7.627 0 0 0-2.739-3.81 7.805 7.805 0 0 0-4.882-1.548 7.931 7.931 0 0 0-4.912 1.548 7.566 7.566 0 0 0-2.769 3.81" transform="translate(-47.598 -11.026)" style="fill:#fff"/>
            <path data-name="Trazado 28" d="M173.659 19.274a14.835 14.835 0 0 1 11.015-4.7 12.67 12.67 0 0 1 8.693 3.215V4.986H202v41.676h-8.633v-2.62a12.811 12.811 0 0 1-8.693 3.1 14.687 14.687 0 0 1-10.985-4.823 15.973 15.973 0 0 1-4.614-11.431 16.118 16.118 0 0 1 4.584-11.61m3.453 11.61a8.281 8.281 0 0 0 2.411 5.954 7.975 7.975 0 0 0 5.984 2.5 8.08 8.08 0 0 0 5.954-2.531 8.158 8.158 0 0 0 2.5-5.924 8.262 8.262 0 0 0-2.5-5.954 8.043 8.043 0 0 0-5.954-2.56 7.935 7.935 0 0 0-5.984 2.53 8.389 8.389 0 0 0-2.411 5.984" transform="translate(-80.245 -2.366)" style="fill:#fff"/>
            <path data-name="Trazado 29" d="M244.053 1.488a5.471 5.471 0 0 1 7.5 0 4.848 4.848 0 0 1 1.547 3.631 4.662 4.662 0 0 1-1.548 3.573 5.214 5.214 0 0 1-3.752 1.488 5.269 5.269 0 0 1-3.751-1.458 4.752 4.752 0 0 1-1.548-3.6 4.844 4.844 0 0 1 1.548-3.631m7.982 42.809H243.4V12.741h8.633z" transform="translate(-115.096)" style="fill:#fff"/>
            <path data-name="Trazado 30" d="M275.419 27.933a14.835 14.835 0 0 1 11.015-4.7 12.67 12.67 0 0 1 8.693 3.215v-2.682h8.633v31.555h-8.633V52.7a12.811 12.811 0 0 1-8.693 3.1 14.687 14.687 0 0 1-10.985-4.823 15.973 15.973 0 0 1-4.614-11.431 16.118 16.118 0 0 1 4.584-11.61m3.453 11.61a8.281 8.281 0 0 0 2.411 5.954 7.975 7.975 0 0 0 5.984 2.5 8.593 8.593 0 0 0 8.455-8.455 8.262 8.262 0 0 0-2.5-5.954 8.044 8.044 0 0 0-5.954-2.56 7.935 7.935 0 0 0-5.984 2.53 8.389 8.389 0 0 0-2.411 5.984" transform="translate(-128.541 -11.025)" style="fill:#fff"/>
            <path data-name="Trazado 31" d="M348.522 27.934a16.155 16.155 0 0 1 21.672-1.012 16.09 16.09 0 0 1 5.656 9.288 15.218 15.218 0 0 1 .417 3.453 13.221 13.221 0 0 1-.357 3.1h-23.7a6.8 6.8 0 0 0 2.8 4.019 8.651 8.651 0 0 0 4.941 1.4 10.574 10.574 0 0 0 7.442-2.679l7.5 2.144a13.56 13.56 0 0 1-6.133 5.924 18.856 18.856 0 0 1-8.812 2.233A15.582 15.582 0 0 1 348.432 51a15.735 15.735 0 0 1-4.732-11.456 15.7 15.7 0 0 1 4.823-11.61m3.691 8.276h15.3a7.623 7.623 0 0 0-2.738-3.81 7.806 7.806 0 0 0-4.882-1.548 7.93 7.93 0 0 0-4.911 1.548 7.563 7.563 0 0 0-2.769 3.81" transform="translate(-163.124 -11.026)" style="fill:#fff"/>
            <path data-name="Rectángulo 7" transform="translate(218.203 2.62)" style="fill:#fff" d="M0 0h8.633v41.676H0z"/>
            <path data-name="Trazado 32" d="m450.069 40.009 4.7 7.713-4.924 8.08h-9.514l9.578-15.793-9.578-15.777h9.514l4.924 8.08z" transform="translate(-208.987 -11.501)" style="fill:#fff"/>
            <path data-name="Trazado 33" d="M472.286 40.009 481.88 55.8h-6.518l-6.742-11.026v-.016l-2.9-4.749 2.9-4.749 6.741-11.028h6.518z" transform="translate(-221.036 -11.501)" style="fill:#2ed9c3"/>
            <path data-name="Trazado 34" d="M127.07 129.958a6.85 6.85 0 0 1 5.126-2.193 5.625 5.625 0 0 1 4.661 2.193v-6.606h3.152v19.19h-3.152v-1.919a5.678 5.678 0 0 1-4.661 2.137 6.841 6.841 0 0 1-5.113-2.206 7.687 7.687 0 0 1-.013-10.6m.822 5.318a4.534 4.534 0 0 0 1.316 3.276 4.362 4.362 0 0 0 3.262 1.357 4.408 4.408 0 0 0 3.248-1.371 4.616 4.616 0 0 0 0-6.537 4.52 4.52 0 0 0-6.5-.015 4.558 4.558 0 0 0-1.329 3.29" transform="translate(-63.51 -66.425)" style="fill:#2ed9c3"/>
            <path data-name="Trazado 35" d="M159.477 122.048a2.123 2.123 0 0 1 2.892-.013 1.871 1.871 0 0 1 .589 1.412 1.846 1.846 0 0 1-.575 1.4 2.031 2.031 0 0 1-1.453.575 2.054 2.054 0 0 1-1.453-.561 1.939 1.939 0 0 1 0-2.811m2.988 19.6h-3.152v-14.529h3.152z" transform="translate(-79.607 -65.533)" style="fill:#2ed9c3"/>
            <path data-name="Trazado 36" d="M170.822 139.044a7.105 7.105 0 0 1 2.056-5.222 6.806 6.806 0 0 1 5.017-2.07h.164a5.749 5.749 0 0 1 4.66 2.166V132h3.153v13.432a6.936 6.936 0 0 1-7.183 7.4 7.838 7.838 0 0 1-4.551-1.4 6.567 6.567 0 0 1-2.659-4.085h3.152a3.4 3.4 0 0 0 1.6 1.933 5.024 5.024 0 0 0 2.426.617 3.988 3.988 0 0 0 2.906-1.1 4.523 4.523 0 0 0 1.151-3.316v-1.179a5.755 5.755 0 0 1-4.66 2.029 6.952 6.952 0 0 1-5.181-2.1 7.128 7.128 0 0 1-2.056-5.2m2.933 0a4.231 4.231 0 0 0 1.343 3.18 4.7 4.7 0 0 0 6.483-.014 4.388 4.388 0 0 0 .014-6.332 4.739 4.739 0 0 0-6.511-.015 4.255 4.255 0 0 0-1.33 3.18" transform="translate(-85.277 -70.412)" style="fill:#2ed9c3"/>
            <path data-name="Trazado 37" d="M205.133 122.048a2.123 2.123 0 0 1 2.892-.013 1.87 1.87 0 0 1 .589 1.412 1.845 1.845 0 0 1-.576 1.4 2.029 2.029 0 0 1-1.453.575 2.053 2.053 0 0 1-1.453-.561 1.939 1.939 0 0 1 0-2.811m2.988 19.6h-3.152v-14.529h3.152z" transform="translate(-101.275 -65.533)" style="fill:#2ed9c3"/>
            <path data-name="Trazado 38" d="M216.008 131v-2.74h2.741v-3.481l3.1-.9v4.386h4.468V131h-4.468v7.074q0 1.344.781 1.671a3.689 3.689 0 0 0 1.412.329 8.174 8.174 0 0 0 2.385-.439v3.044a10.226 10.226 0 0 1-2.714.411 6.656 6.656 0 0 1-3.289-.946q-1.673-.946-1.672-4.044V131z" transform="translate(-106.723 -66.673)" style="fill:#2ed9c3"/>
            <path data-name="Trazado 39" d="M240.712 133.945a6.852 6.852 0 0 1 5.126-2.193 5.623 5.623 0 0 1 4.66 2.193V132h3.153v14.529H250.5v-1.947a5.648 5.648 0 0 1-4.66 2.165 6.841 6.841 0 0 1-5.113-2.206 7.686 7.686 0 0 1-.013-10.6m.822 5.319a4.509 4.509 0 0 0 1.33 3.276 4.551 4.551 0 0 0 6.5-.014 4.616 4.616 0 0 0 0-6.537 4.52 4.52 0 0 0-6.5-.015 4.558 4.558 0 0 0-1.33 3.29" transform="translate(-117.446 -70.412)" style="fill:#2ed9c3"/>
            <path data-name="Rectángulo 8" transform="translate(139.276 56.927)" style="fill:#2ed9c3" d="M0 0h3.152v19.19H0z"/>
            <path data-name="Trazado 40" d="M300.351 133.945a6.852 6.852 0 0 1 5.126-2.193 5.623 5.623 0 0 1 4.66 2.193V132h3.153v14.529h-3.153v-1.947a5.647 5.647 0 0 1-4.66 2.165 6.841 6.841 0 0 1-5.113-2.206 7.686 7.686 0 0 1-.013-10.6m.822 5.319a4.509 4.509 0 0 0 1.33 3.276 4.551 4.551 0 0 0 6.5-.014 4.616 4.616 0 0 0 0-6.537 4.52 4.52 0 0 0-6.5-.015 4.558 4.558 0 0 0-1.33 3.29" transform="translate(-145.751 -70.412)" style="fill:#2ed9c3"/>
            <path data-name="Trazado 41" d="M331.843 139.044a7.105 7.105 0 0 1 2.056-5.222 6.805 6.805 0 0 1 5.017-2.07h.164a5.751 5.751 0 0 1 4.661 2.166V132h3.152v13.432a6.936 6.936 0 0 1-7.182 7.4 7.838 7.838 0 0 1-4.551-1.4 6.565 6.565 0 0 1-2.659-4.085h3.152a3.4 3.4 0 0 0 1.6 1.933 5.022 5.022 0 0 0 2.426.617 3.987 3.987 0 0 0 2.905-1.1 4.521 4.521 0 0 0 1.152-3.316v-1.179a5.756 5.756 0 0 1-4.661 2.029 6.951 6.951 0 0 1-5.181-2.1 7.128 7.128 0 0 1-2.056-5.2m2.933 0a4.231 4.231 0 0 0 1.343 3.18 4.7 4.7 0 0 0 6.483-.014 4.388 4.388 0 0 0 .014-6.332 4.739 4.739 0 0 0-6.511-.015 4.257 4.257 0 0 0-1.329 3.18" transform="translate(-161.7 -70.412)" style="fill:#2ed9c3"/>
            <path data-name="Trazado 42" d="M367.43 133.944a7.183 7.183 0 0 1 5.263-2.192 7.081 7.081 0 0 1 4.784 1.768 7.38 7.38 0 0 1 2.509 4.427 5.389 5.389 0 0 1 .164 1.316 4.983 4.983 0 0 1-.137 1.151h-11.678a4 4 0 0 0 1.494 2.577 4.492 4.492 0 0 0 2.864.96 4.98 4.98 0 0 0 4.03-1.809l2.8.74a6.509 6.509 0 0 1-2.81 2.81 8.266 8.266 0 0 1-4.016 1.055 7.14 7.14 0 0 1-5.3-2.193 7.564 7.564 0 0 1 .042-10.61m.9 4.058h8.608a4.259 4.259 0 0 0-4.277-3.453 4.349 4.349 0 0 0-4.335 3.451" transform="translate(-177.549 -70.412)" style="fill:#2ed9c3"/>
            <path data-name="Trazado 43" d="M397.745 132h3.155v1.919a5.413 5.413 0 0 1 4.523-2.166 6.222 6.222 0 0 1 4.29 1.6 5.435 5.435 0 0 1 1.8 4.262v8.91h-3.153v-8.06a3.721 3.721 0 0 0-1.028-2.755 3.447 3.447 0 0 0-2.536-1.028 3.546 3.546 0 0 0-2.809 1.247 4.578 4.578 0 0 0-1.083 3.111v7.485h-3.152z" transform="translate(-192.977 -70.412)" style="fill:#2ed9c3"/>
            <path data-name="Trazado 44" d="M430.306 133.945a7.18 7.18 0 0 1 5.263-2.193 7.108 7.108 0 0 1 4.167 1.3 7.314 7.314 0 0 1 2.686 3.413l-2.906.795a4.648 4.648 0 0 0-1.59-1.932 4.022 4.022 0 0 0-2.357-.727 4.279 4.279 0 0 0-3.208 1.37 4.735 4.735 0 0 0 0 6.552 4.276 4.276 0 0 0 3.208 1.371 4.088 4.088 0 0 0 2.371-.726 4.455 4.455 0 0 0 1.576-1.906l2.906.768a7.55 7.55 0 0 1-2.686 3.413 7.023 7.023 0 0 1-4.167 1.3 7.129 7.129 0 0 1-5.291-2.206 7.529 7.529 0 0 1 .028-10.6" transform="translate(-207.39 -70.412)" style="fill:#2ed9c3"/>
            <path data-name="Trazado 45" d="M456.863 132.223h3.372l4.3 10.746 4.113-10.746h3.371l-8.142 20.286h-3.289l2.33-5.839z" transform="translate(-221.036 -70.635)" style="fill:#2ed9c3"/>
            <path data-name="Trazado 46" d="m505.814 125.029-9.594-15.793h6.518l6.741 11.028v.016l2.9 4.749-2.9 4.749-6.741 11.028h-6.518z" transform="translate(-239.715 -59.725)" style="fill:#2ed9c3"/>
            <path data-name="Trazado 47" d="m91.057 125.013 9.594 15.793h-6.518l-6.741-11.028v-.016l-2.9-4.749 2.9-4.749 6.741-11.028h6.518z" transform="translate(-44.304 -59.725)" style="fill:#2ed9c3"/>
        </g>
    </g>
</svg>
