<?xml version="1.0" encoding="UTF-8"?>
<svg id="Capa_2" xmlns="http://www.w3.org/2000/svg" viewBox="0 0 311.93 31.82">
  <defs>
    <style>
      .cls-1 {
        fill: #3cb4e5;
      }

      .cls-2 {
        fill: #fff;
      }
    </style>
  </defs>
  <g id="Capa_1-2" data-name="Capa_1">
    <g>
      <g>
        <path class="cls-1" d="M192.96,27.96v-13.64h2.3v11.49h6.86v2.14h-9.16Z"/>
        <path class="cls-1" d="M204.51,19.01c1.04-1.04,2.29-1.56,3.74-1.56,1.3,0,2.43.42,3.4,1.26.97.84,1.56,1.89,1.78,3.15.08.31.12.62.12.94,0,.27-.03.55-.1.82h-8.3c.13.77.48,1.38,1.06,1.83.58.45,1.26.68,2.04.68,1.19,0,2.15-.43,2.86-1.29l1.99.53c-.42.83-1.08,1.5-2,2-.92.5-1.87.75-2.85.75-1.49,0-2.75-.52-3.77-1.56-1.02-1.04-1.53-2.29-1.53-3.76s.52-2.74,1.56-3.78ZM205.15,21.9h6.12c-.13-.69-.47-1.27-1.02-1.74-.55-.47-1.22-.71-2.02-.71s-1.47.24-2.03.71-.91,1.06-1.05,1.74Z"/>
        <path class="cls-1" d="M214.42,19.58v-1.95h1.95v-2.47l2.2-.64v3.12h3.18v1.95h-3.18v5.03c0,.64.19,1.03.56,1.19.37.16.7.23,1,.23.47,0,1.03-.1,1.7-.31v2.16c-.7.19-1.34.29-1.93.29-.77,0-1.55-.22-2.34-.67-.79-.45-1.19-1.41-1.19-2.87v-5.05h-1.95Z"/>
        <path class="cls-1" d="M223.62,19.11l.99-4.95h2.22l-1.52,4.95h-1.69Z"/>
        <path class="cls-1" d="M228.41,20.57c0-.97.4-1.74,1.19-2.29.79-.55,1.81-.83,3.04-.83,1.47,0,2.8.36,3.99,1.07v2.16c-1.51-.87-2.84-1.31-3.99-1.31-.57,0-1.04.11-1.39.32s-.54.5-.54.85c0,.12.02.22.07.32.05.1.12.19.23.26.11.08.22.14.33.19.11.05.27.11.48.17.21.06.38.1.53.14.14.03.35.08.63.15.28.07.5.12.67.16,1.19.29,2.06.69,2.6,1.21s.81,1.16.83,1.91c0,.7-.22,1.29-.65,1.77s-.95.81-1.55,1c-.6.19-1.25.28-1.97.28-1.47,0-2.9-.45-4.29-1.34v-2.28c.47.4,1.11.78,1.93,1.13s1.6.53,2.36.53c.51,0,.94-.1,1.31-.3.37-.2.56-.47.56-.81s-.21-.64-.64-.87-1.1-.43-2.01-.61c-1.27-.26-2.21-.62-2.82-1.08s-.91-1.09-.91-1.9Z"/>
        <path class="cls-1" d="M244.17,27.96v-13.64h2.34v13.64h-2.34Z"/>
        <path class="cls-1" d="M252.92,14.32l5.53,11.83v-11.83h2.26v13.64h-3.86l-5.63-12.08v12.08h-2.26v-13.64h3.96Z"/>
        <path class="cls-1" d="M266.89,14.32l3.82,12.14,3.84-12.14h3.86v13.64h-2.24v-11.75l-3.7,11.75h-3.51l-3.66-11.67v11.67h-2.24v-13.64h3.84Z"/>
        <path class="cls-1" d="M282.22,16.21c1.35-1.35,2.99-2.03,4.91-2.03s3.52.68,4.87,2.05c1.35,1.36,2.03,2.53,2.04,3.5,0,.97,0,1.46,0,1.49,0,1.9-.67,3.51-2.01,4.85-1.35,1.36-2.99,2.05-4.91,2.05s-3.56-.68-4.91-2.05-2.03-3-2.03-4.91.68-3.58,2.03-4.95ZM282.51,21.16c0,1.32.44,2.45,1.32,3.38.88.93,1.98,1.39,3.3,1.39s2.41-.46,3.28-1.39c.88-.93,1.31-2.06,1.31-3.38s-.44-2.47-1.32-3.41c-.88-.94-1.97-1.4-3.27-1.4s-2.41.47-3.29,1.4c-.88.94-1.33,2.07-1.33,3.41Z"/>
      </g>
      <path class="cls-1" d="M305.09,31.48h-5.06s6.81-11.21,6.81-11.21l-6.81-11.21h5.06s6.84,11.21,6.84,11.21l-6.84,11.21Z"/>
      <g>
        <path class="cls-2" d="M6.13,9.05v2.07c1.69-1.64,3.57-2.45,5.63-2.45,2.82,0,5.08,1.14,6.77,3.43.93-1.07,2.04-1.91,3.34-2.52,1.3-.61,2.61-.91,3.93-.91,2.26,0,4.23.8,5.92,2.39,1.69,1.59,2.54,3.76,2.54,6.49v13.92h-6.14v-12.57c0-1.44-.3-2.57-.91-3.41-.61-.83-1.5-1.25-2.69-1.25-2.57,0-4.01,1.5-4.32,4.48v12.74h-6.13v-12.57c0-1.44-.3-2.57-.91-3.41-.61-.83-1.5-1.25-2.69-1.25-1.5,0-2.6.5-3.3,1.5-.71,1-1.06,2.31-1.06,3.91v11.8H0V9.05h6.13Z"/>
        <path class="cls-2" d="M40.87,12.02c2.26-2.23,4.96-3.34,8.12-3.34,2.74,0,5.16.87,7.28,2.62,2.12,1.75,3.45,3.95,4.02,6.6.2.85.3,1.66.3,2.45s-.08,1.5-.25,2.2h-16.84c.34,1.24,1,2.19,1.99,2.86.99.66,2.16.99,3.51.99,2.14,0,3.91-.63,5.29-1.9l5.33,1.52c-.87,1.75-2.33,3.15-4.36,4.21-2.03,1.06-4.12,1.59-6.26,1.59-3.22,0-5.94-1.13-8.19-3.41-2.24-2.27-3.36-4.99-3.36-8.15s1.14-5.99,3.43-8.25ZM43.5,17.9h10.87c-.34-1.07-.99-1.97-1.95-2.71-.96-.73-2.12-1.1-3.47-1.1s-2.52.37-3.49,1.1c-.97.73-1.63,1.64-1.97,2.71Z"/>
        <path class="cls-2" d="M66.38,12.02c2.17-2.23,4.78-3.34,7.83-3.34,2.4,0,4.46.76,6.18,2.28V1.86h6.13v29.62h-6.13v-1.86c-1.69,1.47-3.75,2.2-6.18,2.2-3.02,0-5.62-1.14-7.81-3.43-2.19-2.28-3.28-4.99-3.28-8.12s1.09-5.99,3.26-8.25ZM68.84,20.27c0,1.64.57,3.05,1.71,4.23,1.14,1.19,2.56,1.78,4.25,1.78s3.05-.6,4.23-1.8c1.18-1.2,1.78-2.6,1.78-4.21s-.59-3.02-1.78-4.23c-1.18-1.21-2.6-1.82-4.23-1.82s-3.11.6-4.25,1.8c-1.14,1.2-1.71,2.62-1.71,4.25Z"/>
        <path class="cls-2" d="M91.64,1.06c.73-.7,1.62-1.06,2.67-1.06s1.93.35,2.67,1.06c.73.71,1.1,1.57,1.1,2.58s-.37,1.86-1.1,2.54c-.73.71-1.62,1.06-2.67,1.06s-1.93-.35-2.67-1.04c-.73-.69-1.1-1.54-1.1-2.56s.37-1.88,1.1-2.58ZM97.31,9.05v22.42h-6.13V9.05h6.13Z"/>
        <path class="cls-2" d="M104.38,12.02c2.17-2.23,4.78-3.34,7.83-3.34,2.4,0,4.46.76,6.18,2.28v-1.9h6.13v22.42h-6.13v-1.86c-1.69,1.47-3.75,2.2-6.18,2.2-3.02,0-5.62-1.14-7.81-3.43-2.19-2.28-3.28-4.99-3.28-8.12s1.09-5.99,3.26-8.25ZM106.83,20.27c0,1.64.57,3.05,1.71,4.23,1.14,1.19,2.56,1.78,4.25,1.78s3.05-.6,4.23-1.8c1.18-1.2,1.78-2.6,1.78-4.21s-.59-3.02-1.78-4.23c-1.18-1.21-2.6-1.82-4.23-1.82s-3.11.6-4.25,1.8c-1.14,1.2-1.71,2.62-1.71,4.25Z"/>
        <path class="cls-2" d="M131.75,12.02c2.26-2.23,4.96-3.34,8.12-3.34,2.74,0,5.16.87,7.28,2.62,2.12,1.75,3.45,3.95,4.02,6.6.2.85.3,1.66.3,2.45s-.08,1.5-.25,2.2h-16.84c.34,1.24,1,2.19,1.99,2.86.99.66,2.16.99,3.51.99,2.14,0,3.91-.63,5.29-1.9l5.33,1.52c-.87,1.75-2.33,3.15-4.36,4.21-2.03,1.06-4.12,1.59-6.26,1.59-3.22,0-5.94-1.13-8.19-3.41-2.24-2.27-3.36-4.99-3.36-8.15s1.14-5.99,3.43-8.25ZM134.38,17.9h10.87c-.34-1.07-.99-1.97-1.95-2.71-.96-.73-2.12-1.1-3.47-1.1s-2.52.37-3.49,1.1c-.97.73-1.63,1.64-1.97,2.71Z"/>
        <path class="cls-2" d="M155.07,31.48V1.86h6.13v29.62h-6.13Z"/>
      </g>
      <polygon class="cls-2" points="171.32 20.26 174.67 25.74 171.17 31.48 164.4 31.48 171.21 20.26 164.4 9.05 171.17 9.05 174.67 14.79 171.32 20.26"/>
      <polygon class="cls-1" points="178.55 20.26 185.37 31.48 180.74 31.48 175.95 23.65 175.95 23.63 173.88 20.26 175.95 16.88 180.74 9.05 185.37 9.05 178.55 20.26"/>
    </g>
  </g>
</svg>
