<svg xmlns="http://www.w3.org/2000/svg" width="334.349" height="31.984" viewBox="0 0 334.349 31.984">
    <g data-name="Grupo 6">
        <g data-name="Grupo 1">
            <path data-name="Trazado 1" d="M515.919 514.141v2.044a7.955 7.955 0 0 1 12.224.96 9.831 9.831 0 0 1 3.3-2.482 9.082 9.082 0 0 1 3.88-.9 8.254 8.254 0 0 1 5.841 2.357 8.376 8.376 0 0 1 2.5 6.4v13.725h-6.049v-12.39a5.6 5.6 0 0 0-.9-3.359 3.07 3.07 0 0 0-2.649-1.231q-3.8 0-4.255 4.422v12.557h-6.049v-12.39a5.6 5.6 0 0 0-.9-3.359 3.069 3.069 0 0 0-2.649-1.231 3.705 3.705 0 0 0-3.254 1.481 6.558 6.558 0 0 0-1.043 3.859v11.639h-6.046v-22.102z" transform="translate(-509.87 -505.213)" style="fill:#272727"/>
            <path data-name="Trazado 2" d="M613.348 517.061a11.319 11.319 0 0 1 15.186-.709 11.273 11.273 0 0 1 3.963 6.508 10.638 10.638 0 0 1 .292 2.42 9.25 9.25 0 0 1-.25 2.169h-16.6a4.766 4.766 0 0 0 1.961 2.816 6.062 6.062 0 0 0 3.462.98 7.411 7.411 0 0 0 5.215-1.877l5.257 1.5a9.5 9.5 0 0 1-4.3 4.151 13.212 13.212 0 0 1-6.175 1.565 11.417 11.417 0 0 1-8.01-19.525zm2.587 5.8h10.722a5.345 5.345 0 0 0-1.919-2.67 5.467 5.467 0 0 0-3.421-1.084 5.556 5.556 0 0 0-3.442 1.084 5.3 5.3 0 0 0-1.94 2.669z" transform="translate(-573.048 -505.213)" style="fill:#272727"/>
            <path data-name="Trazado 3" d="M681.836 505.567a10.394 10.394 0 0 1 7.717-3.3 8.878 8.878 0 0 1 6.091 2.253v-8.969h6.049v29.2h-6.049v-1.835a8.976 8.976 0 0 1-6.091 2.17 10.29 10.29 0 0 1-7.7-3.38 11.722 11.722 0 0 1-.021-16.145zm2.42 8.136a5.8 5.8 0 0 0 1.689 4.172 5.591 5.591 0 0 0 4.193 1.752 6.02 6.02 0 0 0 5.924-5.924 5.789 5.789 0 0 0-1.752-4.172 5.635 5.635 0 0 0-4.172-1.794 5.559 5.559 0 0 0-4.193 1.773 5.879 5.879 0 0 0-1.689 4.19z" transform="translate(-616.38 -493.719)" style="fill:#272727"/>
            <path data-name="Trazado 4" d="M753 491.621a3.832 3.832 0 0 1 5.256 0 3.4 3.4 0 0 1 1.084 2.545 3.266 3.266 0 0 1-1.084 2.5 3.861 3.861 0 0 1-5.256.021 3.327 3.327 0 0 1-1.085-2.524 3.4 3.4 0 0 1 1.085-2.542zm5.59 7.885v22.111h-6.049v-22.111z" transform="translate(-662.638 -490.578)" style="fill:#272727"/>
            <path data-name="Trazado 5" d="M783.4 517.061a10.4 10.4 0 0 1 7.718-3.3 8.878 8.878 0 0 1 6.091 2.253v-1.877h6.049v22.111h-6.049v-1.835a8.977 8.977 0 0 1-6.091 2.169 10.289 10.289 0 0 1-7.7-3.38 11.721 11.721 0 0 1-.021-16.145zm2.42 8.135a5.8 5.8 0 0 0 1.689 4.172 5.589 5.589 0 0 0 4.193 1.752 6.02 6.02 0 0 0 5.924-5.924 5.787 5.787 0 0 0-1.752-4.172 5.633 5.633 0 0 0-4.172-1.794 5.558 5.558 0 0 0-4.191 1.77 5.879 5.879 0 0 0-1.689 4.2z" transform="translate(-680.484 -505.213)" style="fill:#272727"/>
            <path data-name="Trazado 6" d="M856.295 517.061a11.319 11.319 0 0 1 15.186-.709 11.28 11.28 0 0 1 3.963 6.508 10.661 10.661 0 0 1 .292 2.42 9.247 9.247 0 0 1-.25 2.169h-16.6a4.768 4.768 0 0 0 1.961 2.816 6.064 6.064 0 0 0 3.463.98 7.411 7.411 0 0 0 5.215-1.877l5.256 1.5a9.5 9.5 0 0 1-4.3 4.151 13.213 13.213 0 0 1-6.174 1.565 11.417 11.417 0 0 1-8.01-19.525zm2.587 5.8H869.6a5.346 5.346 0 0 0-1.919-2.67 5.47 5.47 0 0 0-3.421-1.084 5.557 5.557 0 0 0-3.442 1.084 5.3 5.3 0 0 0-1.936 2.669z" transform="translate(-726.386 -505.213)" style="fill:#272727"/>
            <path data-name="Trazado 7" d="M924.4 524.758v-29.2h6.049v29.2z" transform="translate(-771.501 -493.719)" style="fill:#272727"/>
        </g>
        <g data-name="Grupo 2">
            <path data-name="Trazado 8" d="m956.188 525.822 3.294 5.4-3.45 5.661h-6.667l6.711-11.066-6.711-11.055h6.667l3.45 5.662z" transform="translate(-787.26 -505.845)" style="fill:#272727"/>
        </g>
        <g data-name="Grupo 3">
            <path data-name="Trazado 9" d="M1016.574 533.486a4.8 4.8 0 0 1 3.592-1.537 3.94 3.94 0 0 1 3.266 1.537v-4.63h2.209V542.3h-2.209v-1.344a3.979 3.979 0 0 1-3.266 1.5 4.794 4.794 0 0 1-3.583-1.546 5.385 5.385 0 0 1-.009-7.424zm.576 3.727a3.177 3.177 0 0 0 .922 2.3 3.056 3.056 0 0 0 2.286.951 3.09 3.09 0 0 0 2.276-.96 3.138 3.138 0 0 0 .951-2.286 3.171 3.171 0 0 0-.951-2.3 3.166 3.166 0 0 0-4.552-.01 3.192 3.192 0 0 0-.932 2.304z" transform="translate(-828.746 -514.737)" style="fill:#2ed9c3"/>
            <path data-name="Trazado 10" d="M1049.369 527.384a1.423 1.423 0 0 1 1.018-.4 1.408 1.408 0 0 1 1.009.394 1.311 1.311 0 0 1 .413.989 1.3 1.3 0 0 1-.4.98 1.423 1.423 0 0 1-1.018.4 1.439 1.439 0 0 1-1.018-.394 1.359 1.359 0 0 1 0-1.969zm2.094 3.554v10.181h-2.209v-10.181z" transform="translate(-850.112 -513.554)" style="fill:#2ed9c3"/>
            <path data-name="Trazado 11" d="M1060.872 542.351a4.979 4.979 0 0 1 1.441-3.659 4.768 4.768 0 0 1 3.516-1.451h.116a4.029 4.029 0 0 1 3.265 1.518v-1.345h2.209v9.412a4.861 4.861 0 0 1-5.032 5.187 5.49 5.49 0 0 1-3.189-.98 4.6 4.6 0 0 1-1.864-2.862h2.209a2.379 2.379 0 0 0 1.124 1.354 3.512 3.512 0 0 0 1.7.432 2.8 2.8 0 0 0 2.037-.768 3.172 3.172 0 0 0 .807-2.324v-.826a4.033 4.033 0 0 1-3.265 1.422 4.872 4.872 0 0 1-3.631-1.469 5 5 0 0 1-1.443-3.641zm2.055 0a2.964 2.964 0 0 0 .942 2.228 3.3 3.3 0 0 0 4.543-.01 3.074 3.074 0 0 0 .009-4.437 3.319 3.319 0 0 0-4.562-.01 2.979 2.979 0 0 0-.932 2.229z" transform="translate(-857.638 -520.03)" style="fill:#2ed9c3"/>
            <path data-name="Trazado 12" d="M1094.938 527.384a1.421 1.421 0 0 1 1.018-.4 1.407 1.407 0 0 1 1.009.394 1.31 1.31 0 0 1 .413.989 1.294 1.294 0 0 1-.4.98 1.422 1.422 0 0 1-1.018.4 1.438 1.438 0 0 1-1.018-.394 1.358 1.358 0 0 1 0-1.969zm2.094 3.554v10.181h-2.209v-10.181z" transform="translate(-878.872 -513.554)" style="fill:#2ed9c3"/>
            <path data-name="Trazado 13" d="M1105.971 534.372v-1.921h1.921v-2.44l2.171-.634v3.073h3.131v1.921h-3.131v4.956q0 .942.547 1.172a2.581 2.581 0 0 0 .989.231 5.741 5.741 0 0 0 1.671-.307v2.132a7.15 7.15 0 0 1-1.9.288 4.664 4.664 0 0 1-2.305-.663q-1.171-.663-1.171-2.833v-4.975z" transform="translate(-886.103 -515.067)" style="fill:#2ed9c3"/>
            <path data-name="Trazado 14" d="M1130 538.778a4.8 4.8 0 0 1 3.592-1.537 3.94 3.94 0 0 1 3.266 1.537v-1.364h2.209v10.181h-2.209v-1.364a3.958 3.958 0 0 1-3.266 1.517 4.8 4.8 0 0 1-3.583-1.546 5.385 5.385 0 0 1-.01-7.424zm.576 3.727a3.161 3.161 0 0 0 .931 2.3 3.19 3.19 0 0 0 4.553-.01 3.138 3.138 0 0 0 .951-2.286 3.171 3.171 0 0 0-.951-2.3 3.167 3.167 0 0 0-4.553-.01 3.194 3.194 0 0 0-.93 2.301z" transform="translate(-900.336 -520.03)" style="fill:#2ed9c3"/>
            <path data-name="Trazado 15" d="M1162.946 542.3v-13.444h2.209V542.3z" transform="translate(-922.063 -514.737)" style="fill:#2ed9c3"/>
            <path data-name="Trazado 16" d="M1189.526 538.778a4.8 4.8 0 0 1 3.592-1.537 3.94 3.94 0 0 1 3.266 1.537v-1.364h2.209v10.181h-2.209v-1.364a3.959 3.959 0 0 1-3.266 1.517 4.794 4.794 0 0 1-3.582-1.546 5.385 5.385 0 0 1-.01-7.424zm.576 3.727a3.161 3.161 0 0 0 .932 2.3 3.19 3.19 0 0 0 4.553-.01 3.137 3.137 0 0 0 .951-2.286 3.169 3.169 0 0 0-.951-2.3 3.167 3.167 0 0 0-4.553-.01 3.194 3.194 0 0 0-.934 2.301z" transform="translate(-937.906 -520.03)" style="fill:#2ed9c3"/>
            <path data-name="Trazado 17" d="M1221.587 542.351a4.976 4.976 0 0 1 1.441-3.659 4.767 4.767 0 0 1 3.515-1.451h.115a4.028 4.028 0 0 1 3.265 1.518v-1.345h2.209v9.412a4.86 4.86 0 0 1-5.032 5.187 5.492 5.492 0 0 1-3.189-.98 4.6 4.6 0 0 1-1.863-2.862h2.209a2.375 2.375 0 0 0 1.124 1.354 3.512 3.512 0 0 0 1.7.432 2.8 2.8 0 0 0 2.037-.768 3.172 3.172 0 0 0 .806-2.324v-.826a4.031 4.031 0 0 1-3.265 1.422 4.871 4.871 0 0 1-3.63-1.469 4.994 4.994 0 0 1-1.442-3.641zm2.055 0a2.963 2.963 0 0 0 .942 2.228 3.3 3.3 0 0 0 4.543-.01 3.074 3.074 0 0 0 .009-4.437 3.319 3.319 0 0 0-4.562-.01 2.979 2.979 0 0 0-.932 2.229z" transform="translate(-959.075 -520.03)" style="fill:#2ed9c3"/>
            <path data-name="Trazado 18" d="M1256.456 538.778a5.029 5.029 0 0 1 3.688-1.537 4.959 4.959 0 0 1 3.352 1.239 5.172 5.172 0 0 1 1.758 3.1 3.772 3.772 0 0 1 .115.922 3.51 3.51 0 0 1-.1.807h-8.183a2.8 2.8 0 0 0 1.047 1.806 3.154 3.154 0 0 0 2.007.672 3.489 3.489 0 0 0 2.824-1.268l1.959.519a4.56 4.56 0 0 1-1.969 1.969 5.793 5.793 0 0 1-2.814.74 5 5 0 0 1-3.717-1.537 5.3 5.3 0 0 1 .029-7.434zm.634 2.843h6.031a2.986 2.986 0 0 0-3-2.42 3.047 3.047 0 0 0-3.035 2.42z" transform="translate(-980.113 -520.03)" style="fill:#2ed9c3"/>
            <path data-name="Trazado 19" d="M1287.362 537.414h2.209v1.345a3.794 3.794 0 0 1 3.17-1.518 4.361 4.361 0 0 1 3.006 1.124 3.809 3.809 0 0 1 1.258 2.987v6.243h-2.205v-5.647a2.61 2.61 0 0 0-.721-1.93 2.415 2.415 0 0 0-1.777-.72 2.485 2.485 0 0 0-1.969.874 3.209 3.209 0 0 0-.759 2.181v5.244h-2.209z" transform="translate(-1000.589 -520.03)" style="fill:#2ed9c3"/>
            <path data-name="Trazado 20" d="M1319.21 538.778a5.031 5.031 0 0 1 3.688-1.537 4.98 4.98 0 0 1 2.92.913 5.125 5.125 0 0 1 1.883 2.392l-2.036.557a3.259 3.259 0 0 0-1.114-1.354 2.817 2.817 0 0 0-1.652-.509 3 3 0 0 0-2.247.96 3.318 3.318 0 0 0 0 4.591 3 3 0 0 0 2.247.96 2.862 2.862 0 0 0 1.662-.509 3.12 3.12 0 0 0 1.1-1.335l2.036.538a5.29 5.29 0 0 1-1.883 2.392 4.921 4.921 0 0 1-2.92.912 5 5 0 0 1-3.707-1.546 5.276 5.276 0 0 1 .019-7.424z" transform="translate(-1019.721 -520.03)" style="fill:#2ed9c3"/>
            <path data-name="Trazado 21" d="M1346.368 537.71h2.363l3.016 7.53 2.881-7.53h2.363l-5.705 14.215h-2.3l1.632-4.092z" transform="translate(-1037.831 -520.326)" style="fill:#2ed9c3"/>
        </g>
        <g data-name="Grupo 4">
            <path data-name="Trazado 22" d="m1392.374 525.833-6.722-11.066h4.567l4.724 7.727v.011l2.032 3.328-2.032 3.328-4.724 7.727h-4.567z" transform="translate(-1062.626 -505.845)" style="fill:#2ed9c3"/>
        </g>
        <g data-name="Grupo 5">
            <path data-name="Trazado 23" d="m979.306 525.822 6.722 11.066h-4.567l-4.724-7.727v-.011l-2.032-3.328 2.032-3.328 4.723-7.727h4.567z" transform="translate(-803.254 -505.845)" style="fill:#2ed9c3"/>
        </g>
    </g>
</svg>
